<svg width="32" height="32" viewBox="0 -3 40 37" fill="none" xmlns="http://www.w3.org/2000/svg">
  <!-- Fondo con gradiente azul -->
  <rect x="0" y="0" width="32" height="32" rx="8" fill="url(#planeGradient)"/>
  
  <!-- Avión centrado -->
  <g transform="translate(4, 4)">
    <path d="M21 16v-2l-8-5V3.5c0-.83-.67-1.5-1.5-1.5S10 2.67 10 3.5V9l-8 5v2l8-2.5V19l-2 1.5V22l3.5-1 3.5 1v-1.5L13 19v-5.5l8 2.5z" fill="white" opacity="0.98"/>
  </g>
  
  <!-- Checkmark verde que sobresale del borde superior derecho -->
  <!-- Centro del círculo en la esquina (32, 0) -->
  <g transform="translate(32, 0)">
    <circle cx="0" cy="0" r="6" fill="white" opacity="0.98"/>
    <circle cx="0" cy="0" r="5.5" fill="#22c55e" opacity="0.95"/>
    <path d="M-2.5 0 L-0.5 2 L2.5 -2" stroke="white" stroke-width="1.8" stroke-linecap="round" stroke-linejoin="round" fill="none"/>
  </g>
  
  <defs>
    <linearGradient id="planeGradient" x1="0" y1="0" x2="32" y2="32" gradientUnits="userSpaceOnUse">
      <stop offset="0%" stop-color="#3b82f6"/>
      <stop offset="50%" stop-color="#2563eb"/>
      <stop offset="100%" stop-color="#1d4ed8"/>
    </linearGradient>
  </defs>
</svg>
